<svg width="60" height="60" viewBox="0 0 60 60" fill="none" xmlns="http://www.w3.org/2000/svg">
<g clip-path="url(#clip0_95_107)">
<path d="M46.875 0H13.125C5.87625 0 0 5.87625 0 13.125V46.875C0 54.1237 5.87625 60 13.125 60H46.875C54.1237 60 60 54.1237 60 46.875V13.125C60 5.87625 54.1237 0 46.875 0ZM56.25 46.875C56.25 52.0527 52.0527 56.25 46.875 56.25H13.125C7.9473 56.25 3.75 52.0527 3.75 46.875V13.125C3.75 7.9473 7.9473 3.75 13.125 3.75H46.875C52.0527 3.75 56.25 7.9473 56.25 13.125V46.875Z" fill="black"/>
<path d="M31.875 11.25H28.125V28.125H11.25V31.875H28.125V48.75H31.875V31.875H48.75V28.125H31.875V11.25Z" fill="black"/>
</g>
<defs>
<clipPath id="clip0_95_107">
<rect width="60" height="60" fill="black"/>
</clipPath>
</defs>
</svg>
