<svg width="30" height="30" viewBox="0 0 30 30" fill="none" xmlns="http://www.w3.org/2000/svg">
<g clip-path="url(#clip0_95_101)">
<path d="M23.4375 0H6.5625C2.93813 0 0 2.93813 0 6.5625V23.4375C0 27.0619 2.93813 30 6.5625 30H23.4375C27.0619 30 30 27.0619 30 23.4375V6.5625C30 2.93813 27.0619 0 23.4375 0ZM28.125 
23.4375C28.125 26.0263 26.0263 28.125 23.4375 28.125H6.5625C3.97365 28.125 1.875 26.0263 1.875 23.4375V6.5625C1.875 3.97365 3.97365 1.875 6.5625 1.875H23.4375C26.0263 1.875 28.125 
3.97365 28.125 6.5625V23.4375Z" fill="#2D2D2D"/>
<path d="M15.9375 5.625H14.0625V14.0625H5.625V15.9375H14.0625V24.375H15.9375V15.9375H24.375V14.0625H15.9375V5.625Z" fill="#2D2D2D"/>
</g>
<defs>
<clipPath id="clip0_95_101">
<rect width="30" height="30" fill="#2D2D2D"/>
</clipPath>
</defs>
</svg>
