<svg width="44" height="44" viewBox="0 0 44 44" fill="none" xmlns="http://www.w3.org/2000/svg">
<rect x="17" y="11" width="10" height="22" fill="white"/>
<path fill-rule="evenodd" clip-rule="evenodd" d="M22.0001 40.3333C13.3577 40.3333 9.03645 40.3333 6.35161 37.6484C3.66675 34.9637 3.66675 30.6423 3.66675 22C3.66675 13.3576 3.66675 9.03637 6.35161 6.35153C9.03645 3.66666 13.3577 3.66666 22.0001 3.66666C30.6424 3.66666 34.9638 3.66666 37.6485 6.35153C40.3334 9.03637 40.3334 13.3576 40.3334 22C40.3334 30.6423 40.3334 34.9637 37.6485 37.6484C34.9638 40.3333 30.6424 40.3333 22.0001 40.3333ZM22.0001 32.5417C22.7594 32.5417 23.3751 31.926 23.3751 31.1667V20.1667C23.3751 19.4073 22.7594 18.7917 22.0001 18.7917C21.2407 18.7917 20.6251 19.4073 20.6251 20.1667V31.1667C20.6251 31.926 21.2407 32.5417 22.0001 32.5417ZM22.0001 12.8333C23.0126 12.8333 23.8334 13.6542 23.8334 14.6667C23.8334 15.6792 23.0126 16.5 22.0001 16.5C20.9875 16.5 20.1667 15.6792 20.1667 14.6667C20.1667 13.6542 20.9875 12.8333 22.0001 12.8333Z" fill="#2D2D2D" stroke="white" stroke-width="0.00256"/>
</svg>
