<svg width="44" height="44" viewBox="0 0 44 44" fill="none" xmlns="http://www.w3.org/2000/svg">
<rect x="4" y="4" width="36" height="34" rx="8" fill="white"/>
<path d="M33.0001 14.6667C33.0001 16.6917 31.3585 18.3333 29.3334 18.3333C27.3083 18.3333 25.6667 16.6917 25.6667 14.6667C25.6667 12.6416 27.3083 11 29.3334 11C31.3585 11 33.0001 12.6416 33.0001 14.6667Z" fill="#2D2D2D"/>
<path fill-rule="evenodd" clip-rule="evenodd" d="M21.8948 2.29167H22.1053C26.3374 2.29165 29.6539 2.29163 32.2416 2.63954C34.8902 2.99565 36.9804 3.73877 38.6209 5.37926C40.2614 7.01974 41.0044 9.10978 41.3606 11.7585C41.7084 14.3462 41.7084 17.6628 41.7084 21.8948V22.0567C41.7084 25.5561 41.7084 28.4209 41.5183 30.7533C41.3274 33.0973 40.936 35.0559 40.0601 36.6826C39.6736 37.4002 39.1989 38.0428 38.6209 38.6208C36.9804 40.2613 34.8902 41.0043 32.2416 41.3605C29.6539 41.7083 26.3374 41.7083 22.1053 41.7083H21.8948C17.6628 41.7083 14.3463 41.7083 11.7585 41.3605C9.10986 41.0043 7.01982 40.2613 5.37934 38.6208C3.92499 37.1664 3.17395 35.3562 2.77456 33.1107C2.38222 30.9051 2.31045 28.1606 2.29554 24.7528C2.29175 23.886 2.29175 22.9691 2.29175 22.0018V21.8948C2.29173 17.6628 2.29171 14.3462 2.63962 11.7585C2.99573 9.10978 3.73885 7.01974 5.37934 5.37926C7.01982 3.73877 9.10986 2.99565 11.7585 2.63954C14.3463 2.29163 17.6629 2.29165 21.8948 2.29167ZM12.125 5.36501C9.78123 5.68013 8.36824 6.27942 7.32388 7.3238C6.27951 8.36816 5.68021 9.78115 5.36509 12.1249C5.04466 14.5082 5.04175 17.6399 5.04175 22C5.04175 22.5326 5.04175 23.0478 5.04237 23.5464L6.8778 21.9404C8.54846 20.4787 11.0664 20.5625 12.6361 22.1322L20.5006 29.9966C21.7605 31.2567 23.7438 31.4285 25.2016 30.4038L25.7483 30.0197C27.846 28.5454 30.6842 28.7162 32.5901 30.4315L37.7792 35.1015C38.3015 34.0047 38.6117 32.5633 38.7775 30.53C38.9573 28.3217 38.9584 25.5675 38.9584 22C38.9584 17.6399 38.9555 14.5082 38.635 12.1249C38.32 9.78115 37.7207 8.36816 36.6763 7.3238C35.6318 6.27942 34.2189 5.68013 31.8751 5.36501C29.4918 5.04458 26.3601 5.04167 22.0001 5.04167C17.64 5.04167 14.5083 5.04458 12.125 5.36501Z" fill="#2D2D2D"/>
</svg>
