<svg width="45" height="45" viewBox="0 0 45 45" fill="none" xmlns="http://www.w3.org/2000/svg">
<rect x="12" y="15" width="22.5" height="16.8476" fill="white"/>
<path d="M30.3562 3.75001H14.6437C7.81875 3.75001 3.75 7.81876 3.75 14.6438V30.3375C3.75 37.1813 7.81875 41.25 14.6437 41.25H30.3375C37.1625 41.25 41.2312 37.1813 41.2312 30.3563V14.6438C41.25 
7.81876 37.1812 3.75001 30.3562 3.75001ZM27.4875 25.7438L25.0875 27.1313L22.6875 28.5188C19.5938 30.3 17.0625 28.8375 17.0625 25.275V22.5V19.725C17.0625 16.1438 19.5938 14.7 22.6875 16.4813L25.0875 
17.8688L27.4875 19.2563C30.5812 21.0375 30.5812 23.9625 27.4875 25.7438Z" fill="#2D2D2D"/>
</svg>
