<svg width="25" height="25" viewBox="0 0 25 25" fill="none" xmlns="http://www.w3.org/2000/svg">
<path fill-rule="evenodd" clip-rule="evenodd" d="M4.40296 4.40296C4.7179 4.08801 5.22851 4.08801 5.54345 4.40296L12.5001 11.3596L19.4568 4.40296C19.7716 4.08801 20.2823 4.08801 20.5972 4.40296C20.9122 4.7179 20.9122 5.22851 20.5972 5.54345L13.6406 12.5001L20.5972 19.4568C20.9122 19.7716 20.9122 20.2823 20.5972 20.5972C20.2823 20.9122 19.7716 20.9122 19.4568 20.5972L12.5001 13.6406L5.54345 20.5972C5.22851 20.9122 4.7179 20.9122 4.40296 20.5972C4.08801 20.2823 4.08801 19.7716 4.40296 19.4568L11.3596 12.5001L4.40296 5.54345C4.08801 5.22851 4.08801 4.7179 4.40296 4.40296Z" fill="#2D2D2D"/>
</svg>
