<svg width="30" height="30" viewBox="0 0 30 30" fill="none" xmlns="http://www.w3.org/2000/svg">
<path d="M13.3334 4.58325C12.873 4.58325 12.5001 4.95617 12.5001 5.41659V5.83325H7.08342C6.163 5.83325 5.41675 6.5795 5.41675 7.49992C5.41675 8.42034 6.163 9.16659 7.08342 9.16659H22.9168C23.8372 9.16659 24.5834 8.42034 24.5834 7.49992C24.5834 6.5795 23.8372 5.83325 22.9168 5.83325H17.5001V5.41659C17.5001 4.95617 17.1272 4.58325 16.6668 4.58325H13.3334ZM6.66675 9.99993V20.4166C6.66675 22.7141 8.53592 24.5833 10.8334 24.5833H19.1668C21.4643 24.5833 23.3334 22.7141 23.3334 20.4166V9.99993H6.66675ZM10.2084 12.0833C10.5534 12.0833 10.8334 12.3628 10.8334 12.7083V20.6249C10.8334 20.9704 10.5534 21.2499 10.2084 21.2499C9.86342 21.2499 9.58342 20.9704 9.58342 20.6249V12.7083C9.58342 12.3628 9.86342 12.0833 10.2084 12.0833ZM15.0001 12.0833C15.4601 12.0833 15.8334 12.4566 15.8334 12.9166V20.4166C15.8334 20.8766 15.4601 21.2499 15.0001 21.2499C14.5401 21.2499 14.1668 20.8766 14.1668 20.4166V12.9166C14.1668 12.4566 14.5401 12.0833 15.0001 12.0833ZM19.7918 12.0833C20.1368 12.0833 20.4168 12.3628 20.4168 12.7083V20.6249C20.4168 20.9704 20.1368 21.2499 19.7918 21.2499C19.4468 21.2499 19.1668 20.9704 19.1668 20.6249V12.7083C19.1668 12.3628 19.4468 12.0833 19.7918 12.0833Z" fill="#2D2D2D"/>
</svg>
