<svg width="25" height="24" viewBox="0 0 25 24" fill="none" xmlns="http://www.w3.org/2000/svg">
<path d="M14.042 2.00193C13.8857 2.00033 13.7959 2.00779 13.7959 2.00779C13.4039 2.03671 13.0465 2.23411 12.8234 2.5449L3.58265 15.4687C3.44852 15.6553 3.36976 15.8734 3.35479 16.0996L3.12692 
19.6738C3.09914 20.1121 3.31286 20.5321 3.68994 20.7806C4.06704 21.029 4.55222 21.0693 4.96814 20.8867L8.35966 19.3984C8.57466 19.3043 8.75892 19.1558 8.89271 18.9688L18.1355 6.04492C18.3576 
5.73418 18.4219 5.3438 18.3104 4.98241C18.3104 4.98241 17.9154 3.63885 16.5791 2.7578C16.5784 2.7578 16.5777 2.7578 16.577 2.7578C15.5749 2.09811 14.5111 2.00672 14.042 2.00193ZM14.4856 
4.64061C14.7016 4.67083 14.8093 4.62702 15.1041 4.8203C15.3993 5.01497 15.3935 5.12748 15.5008 5.31054L14.6849 6.45311L13.6677 5.7832L14.4856 4.64061ZM12.1947 7.84374L13.2099 8.51366L6.94772 
17.2695L5.85926 17.748L5.9325 16.5976L12.1947 7.84374ZM11.7186 18.5C10.9995 18.5 10.4165 19.0596 10.4165 19.75C10.4165 20.4404 10.9995 21 11.7186 21C12.4378 21 13.0207 20.4404 13.0207 19.75C13.0207 
19.0596 12.4378 18.5 11.7186 18.5ZM15.8853 18.5C15.1662 18.5 14.5832 19.0596 14.5832 19.75C14.5832 20.4404 15.1662 21 15.8853 21C16.6044 21 17.1874 20.4404 17.1874 19.75C17.1874 19.0596 16.6044 
18.5 15.8853 18.5ZM20.052 18.5C19.3328 18.5 18.7499 19.0596 18.7499 19.75C18.7499 20.4404 19.3328 21 20.052 21C20.7711 21 21.3541 20.4404 21.3541 19.75C21.3541 19.0596 20.7711 18.5 20.052 18.5Z" 
fill="#2D2D2D"/>
</svg>
