<svg xmlns="http://www.w3.org/2000/svg" xmlns:xlink="http://www.w3.org/1999/xlink" viewBox="0,0,256,256" width="40px" height="40px">
<g fill="#2d2d2d" fill-rule="nonzero" stroke="none" stroke-width="1" stroke-linecap="butt" stroke-linejoin="miter" stroke-miterlimit="10" stroke-dasharray="" 
stroke-dashoffset="0" font-family="none" font-weight="none" font-size="none" text-anchor="none" style="mix-blend-mode: normal">
<g transform="scale(8,8)">
<path d="M13.071,24.358c-0.497,0 -0.962,-0.246 -1.242,-0.658c-2.339,-3.45 -4.751,-5.873 -7.373,-7.405c-0.715,
-0.418 -0.956,-1.337 -0.538,-2.052c0.417,-0.715 1.336,-0.958 2.052,-0.538c2.529,1.478 4.856,3.627 7.071,6.539c4.261,
-6.008 9.283,-10.838 14.952,-14.375c0.705,-0.438 1.628,-0.225 2.066,0.479c0.438,0.703 0.225,1.628 -0.479,2.066c-5.935,3.702 -10.925,8.697 -15.258,
15.27c-0.276,0.419 -0.742,0.672 -1.243,0.675c-0.002,-0.001 -0.005,-0.001 -0.008,-0.001z">
</path>
</g>
</g>
</svg>